# xmcd CD database file
#
# Track frame offsets:
#	150
#	25332
#	55333
#	84734
#	108885
#	128910
#	161836
#	177811
#	206537
#	240812
#	272610
#	305460
#
# Disc length: 4483 seconds
#
# Revision: 0
# Processed by: cddbd v1.5.2PL0 Copyright (c) Steve Scherf et al.
# Submitted via: CDex 1.70beta2
#
DISCID=9811810c
DTITLE=Various Artist - Jazz Bar 2003
DYEAR=2003
DGENRE=Jazz
TTITLE0=La Zorra-Crazy Energy Jazz Quartet
TTITLE1=At Ease-Lars Jansson Trio
TTITLE2=Lean On Me-Lynne Arriale Trio
TTITLE3=Windmills Of Your Mind-Carla Helmrecht
TTITLE4=Time After Time-Jan Kare Hystad Kvartett
TTITLE5=Curtis Lundy-Pas De Trois
TTITLE6=Miami Beach Rhumba-Janet Seidel
TTITLE7=Black Is The Colour-Mike Nock
TTITLE8=Serenade To A Cuckoo-Henry Franklin Trio
TTITLE9=And Her Look Touching The Air-Joe LoCascio Trio
TTITLE10=Derirves-Jean-Philippe Viret
TTITLE11=My Heart Belongs To Daddy-Solveig Slettahjell
EXTD=YEAR: 2003
EXTT0=
EXTT1=
EXTT2=
EXTT3=
EXTT4=
EXTT5=
EXTT6=
EXTT7=
EXTT8=
EXTT9=
EXTT10=
EXTT11=
PLAYORDER=
